<svg width="652" height="152" viewBox="0 0 652 152" fill="none" xmlns="http://www.w3.org/2000/svg">
<path d="M93.4997 56.32L106.21 69.1799C111.506 74.6264 111.203 83.4014 105.605 89.1505L92.1378 102.767L75.796 86.2759C72.4671 82.9475 67.1712 82.9475 63.9936 86.2759L28.7375 121.678L52.3424 145.582C59.7568 153.147 72.1645 152.693 79.8815 144.826L123.762 100.497C135.565 88.3941 136.019 69.6338 124.822 58.4381L108.026 41.4935L93.4997 56.32Z" fill="#495054"/>
<path d="M54.3096 6.99835L9.97475 52.0835C-1.52507 63.733 -2.13028 82.3419 9.06691 93.6888L25.7114 110.482L39.3296 96.7147L26.7706 84.0061C21.4746 78.5596 21.4746 70.2385 26.7706 64.9433L41.9019 49.5114L57.9411 65.851C61.27 69.1795 66.566 69.1795 69.5923 65.851L104.848 30.4486L81.6973 6.69584C74.283 -1.17135 62.0265 -0.717545 54.3096 6.99835Z" fill="#E35E3B"/>
<path d="M263.575 75.8362C263.575 85.2163 262.062 93.386 259.187 100.345C256.312 107.305 252.075 113.054 246.779 117.744C241.483 122.283 234.826 125.763 227.109 128.032C219.392 130.301 210.767 131.512 201.234 131.512C196.846 131.512 191.701 131.36 185.952 130.907C180.05 130.604 174.452 129.848 168.702 128.637V23.1864C174.3 22.1274 180.202 21.3711 186.254 21.0685C192.307 20.7659 197.603 20.4633 201.991 20.4633C211.221 20.4633 219.694 21.5223 227.26 23.6404C234.826 25.7585 241.332 28.9356 246.779 33.4744C252.227 38.0131 256.312 43.611 259.338 50.7217C262.062 57.6812 263.575 66.0022 263.575 75.8362ZM193.063 110.179C194.274 110.331 195.484 110.331 196.997 110.482C198.511 110.482 200.326 110.633 202.445 110.633C214.701 110.633 223.629 107.608 229.53 101.405C235.431 95.2016 238.306 86.7292 238.306 75.9874C238.306 64.6405 235.431 56.0169 229.832 50.2678C224.234 44.3674 215.306 41.4929 203.05 41.4929C201.386 41.4929 199.721 41.4929 197.905 41.6442C196.09 41.6442 194.425 41.7954 192.912 42.098V110.179H193.063Z" fill="#495054"/>
<path d="M340.14 129.999C337.113 123.947 333.784 117.895 330.153 111.692C326.521 105.489 322.436 100.345 317.594 95.958C316.081 97.6222 314.265 99.7402 311.995 102.615C309.726 105.489 307.456 108.515 305.338 111.692C303.068 114.869 300.95 118.198 298.982 121.678C297.015 125.157 295.654 127.88 294.594 129.847H266.753C271.292 121.375 276.74 112.6 282.943 103.674C289.147 94.5964 296.108 85.065 303.673 74.9284L268.266 21.5223H297.772L318.35 52.8398L339.383 21.5223H367.225L332.12 73.718C341.35 85.2162 348.916 95.8066 354.817 105.489C360.718 115.172 365.409 123.19 368.889 129.696H340.14V129.999V129.999Z" fill="#495054"/>
<path d="M460.282 21.8257H470.874V130.151H460.282V78.1062H401.573V130.151H390.981V21.8257H401.573V68.8774H460.282V21.8257Z" fill="#495054"/>
<path d="M557.424 127.275C554.398 128.183 550.313 129.091 545.168 130.15C540.023 131.209 533.82 131.663 526.405 131.663C520.353 131.663 515.359 130.755 511.274 128.939C507.189 127.124 503.86 124.703 501.439 121.375C498.866 118.198 497.202 114.264 495.992 109.725C494.932 105.187 494.327 100.043 494.327 94.5962V49.2088H504.465V91.2677C504.465 97.0168 504.919 101.858 505.676 105.792C506.432 109.725 507.794 112.902 509.761 115.474C511.577 117.895 513.998 119.71 517.024 120.77C520.05 121.829 523.682 122.434 527.918 122.434C532.76 122.434 536.846 122.131 540.477 121.677C543.958 121.224 546.227 120.618 547.135 120.316V49.3601H557.273L557.424 127.275Z" fill="#495054"/>
<path d="M591.47 54.0505C593.286 52.6889 596.009 51.3273 599.944 49.8144C603.878 48.3015 608.417 47.545 613.713 47.545C619.614 47.545 624.759 48.604 629.298 50.7221C633.838 52.8402 637.621 55.7147 640.798 59.497C643.976 63.2793 646.246 67.6668 647.91 72.8107C649.574 77.9547 650.331 83.5524 650.331 89.7554C650.331 96.261 649.423 102.161 647.456 107.457C645.489 112.601 642.765 117.139 639.285 120.77C635.805 124.401 631.568 127.276 626.726 129.091C621.884 131.058 616.437 131.966 610.536 131.966C603.273 131.966 597.371 131.512 592.681 130.604C587.99 129.697 584.207 128.637 581.181 127.578V10.6297L591.319 8.81412V54.0505H591.47ZM591.47 120.468C592.983 120.922 595.404 121.527 598.431 121.981C601.457 122.435 605.542 122.737 610.536 122.737C619.312 122.737 626.272 119.863 631.568 114.265C636.864 108.516 639.588 100.497 639.588 89.7554C639.588 85.2166 639.134 80.9806 638.226 77.047C637.318 72.9621 635.805 69.4824 633.686 66.6078C631.568 63.582 628.844 61.3125 625.516 59.497C622.187 57.6815 617.95 56.7738 612.957 56.7738C610.536 56.7738 608.266 57.0764 606.148 57.5303C604.029 57.9842 601.911 58.5893 600.095 59.3457C598.279 60.1022 596.615 60.8586 595.102 61.6151C593.74 62.5228 592.529 63.2793 591.621 63.8845L591.47 120.468Z" fill="#495054"/>
</svg>
