<svg width="800" height="300" viewBox="0 0 800 300" fill="none" xmlns="http://www.w3.org/2000/svg">
<path d="M168.584 129.088L181.294 141.948C186.59 147.394 186.288 156.169 180.689 161.918L165.104 177.653L148.762 161.162C145.433 157.833 140.137 157.833 136.959 161.162L102.762 195.505L126.367 219.409C133.782 226.974 146.189 226.52 153.906 218.653L197.787 174.324C209.59 162.221 210.044 143.461 198.847 132.265L182.051 115.32L168.584 129.088Z" fill="white"/>
<path d="M128.183 80.8251L83.8488 125.91C72.3491 137.56 71.7437 156.169 82.9408 167.516L99.5853 184.309L112.144 171.601L99.5853 158.892C94.2893 153.445 94.2893 145.124 99.5853 139.829L116.835 122.279L132.874 138.619C136.203 141.947 141.499 141.947 144.525 138.619L178.722 104.275L155.571 80.5224C148.308 72.6552 136.052 73.1092 128.183 80.8251Z" fill="white"/>
<path d="M337.449 149.965C337.449 159.346 335.936 167.515 333.061 174.475C330.186 181.434 325.949 187.183 320.654 191.873C315.358 196.412 308.7 199.892 300.983 202.161C293.266 204.431 284.641 205.641 275.108 205.641C270.72 205.641 265.576 205.49 259.826 205.036C253.924 204.733 248.326 203.977 242.576 202.767V97.3156C248.174 96.2566 254.076 95.5003 260.128 95.1977C266.181 94.8951 271.477 94.5925 275.865 94.5925C285.095 94.5925 293.568 95.6515 301.134 97.7696C308.7 99.8877 315.206 103.065 320.654 107.604C326.101 112.142 330.186 117.74 333.213 124.851C336.088 131.81 337.449 140.131 337.449 149.965ZM266.937 184.309C268.148 184.46 269.358 184.46 270.871 184.611C272.384 184.611 274.2 184.763 276.319 184.763C288.575 184.763 297.502 181.737 303.404 175.534C309.305 169.331 312.18 160.858 312.18 150.117C312.18 138.77 309.305 130.146 303.706 124.397C298.108 118.497 289.18 115.622 276.924 115.622C275.259 115.622 273.595 115.622 271.779 115.773C269.963 115.773 268.299 115.925 266.786 116.227L266.937 184.309Z" fill="white"/>
<path d="M414.165 204.128C411.139 198.077 407.81 192.025 404.178 185.822C400.547 179.619 396.461 174.475 391.619 170.088C390.106 171.752 388.29 173.87 386.02 176.744C383.751 179.619 381.481 182.645 379.363 185.822C377.093 188.999 374.974 192.327 373.007 195.807C371.04 199.287 369.678 202.01 368.619 203.977H340.778C345.317 195.504 350.764 186.73 356.968 177.803C363.172 168.726 370.132 159.194 377.698 149.058L342.291 95.6517H371.797L392.376 126.969L413.408 95.6517H441.25L406.145 147.847C415.375 159.346 422.941 169.936 428.842 179.619C434.744 189.302 439.434 197.32 442.915 203.826H414.165V204.128Z" fill="white"/>
<path d="M534.308 95.9549H544.9V204.28H534.308V152.235H475.598V204.28H465.006V95.9549H475.598V143.007H534.308V95.9549Z" fill="white"/>
<path d="M631.451 201.404C628.424 202.312 624.339 203.22 619.195 204.279C614.05 205.338 607.846 205.792 600.432 205.792C594.379 205.792 589.386 204.884 585.3 203.069C581.215 201.253 577.886 198.832 575.465 195.504C572.893 192.327 571.229 188.393 570.018 183.855C568.959 179.316 568.354 174.172 568.354 168.725V123.338H578.491V165.397C578.491 171.146 578.945 175.987 579.702 179.921C580.458 183.855 581.82 187.032 583.787 189.604C585.603 192.024 588.024 193.84 591.05 194.899C594.077 195.958 597.708 196.563 601.945 196.563C606.787 196.563 610.872 196.261 614.504 195.807C617.984 195.353 620.253 194.748 621.161 194.445V123.489H631.3V201.404H631.451V201.404Z" fill="white"/>
<path d="M665.496 128.18C667.311 126.818 670.035 125.457 673.969 123.944C677.903 122.431 682.443 121.674 687.738 121.674C693.64 121.674 698.784 122.733 703.324 124.851C707.863 126.969 711.646 129.844 714.824 133.626C718.001 137.409 720.271 141.796 721.935 146.94C723.6 152.084 724.356 157.682 724.356 163.885C724.356 170.39 723.448 176.291 721.481 181.586C719.514 186.73 716.791 191.269 713.31 194.9C709.83 198.531 705.593 201.405 700.751 203.221C695.909 205.187 690.462 206.095 684.561 206.095C677.298 206.095 671.397 205.641 666.706 204.734C662.016 203.826 658.233 202.767 655.206 201.708V84.7589L665.345 82.9433L665.496 128.18ZM665.496 194.597C667.009 195.051 669.43 195.656 672.456 196.11C675.482 196.564 679.568 196.866 684.561 196.866C693.337 196.866 700.297 193.992 705.593 188.394C710.889 182.645 713.613 174.626 713.613 163.885C713.613 159.346 713.159 155.11 712.251 151.176C711.343 147.091 709.83 143.612 707.712 140.737C705.594 137.711 702.87 135.442 699.541 133.626C696.212 131.811 691.975 130.903 686.982 130.903C684.561 130.903 682.291 131.206 680.173 131.66C678.054 132.113 675.936 132.718 674.12 133.475C672.305 134.231 670.64 134.988 669.127 135.744C667.766 136.652 666.555 137.409 665.647 138.014V194.597H665.496Z" fill="white"/>
</svg>
