<svg width="835" height="152" viewBox="0 0 835 152" fill="none" xmlns="http://www.w3.org/2000/svg">
<path d="M271.748 88.9991C271.597 82.6448 272.656 76.2905 274.925 70.3901C276.893 65.3974 279.767 60.8586 283.399 57.0762C286.728 53.5965 290.965 50.8734 295.655 48.9066C300.044 46.9398 305.188 46.0318 310.03 46.0318C321.379 46.0318 330.458 49.3605 336.813 56.4712C343.168 63.582 346.648 73.5673 346.648 87.1837C346.648 88.5453 346.648 90.2094 346.497 91.571C346.346 93.2352 346.346 94.5969 346.194 95.8072H294.748C295.05 100.195 297.623 104.431 301.405 107.003C305.34 109.877 310.484 111.239 316.991 111.239C321.076 111.239 325.162 110.936 329.247 110.029C332.576 109.272 335.905 108.365 338.931 107.154L341.957 125.763C340.293 126.52 338.78 126.973 336.964 127.579C334.846 128.335 332.576 128.637 330.004 129.243C327.583 129.697 324.708 130.15 321.833 130.453C318.958 130.756 316.234 131.058 313.359 131.058C307.004 131.21 300.649 130.151 294.596 127.881C289.603 125.914 285.063 123.04 281.281 119.258C277.8 115.475 275.077 110.936 273.564 106.246C272.504 100.497 271.748 94.7482 271.748 88.9991ZM324.859 80.3755C324.708 78.4087 324.405 76.5929 323.8 74.7774C323.195 72.8106 322.438 71.4492 321.076 69.785C319.866 68.4234 318.353 67.0615 316.688 66.4563C314.721 65.5485 312.3 65.0948 310.03 65.0948C307.761 64.9435 305.642 65.3975 303.372 66.3052C301.557 67.0617 300.195 68.272 298.984 69.6336C297.774 71.2978 296.866 72.8108 296.109 74.6263C295.353 76.5931 294.899 78.4085 294.748 80.5266H324.859V80.3755Z" fill="#495054"/>
<path d="M498.416 88.9991C498.265 82.6448 499.324 76.2905 501.594 70.3901C503.561 65.3974 506.436 60.8586 510.067 57.0762C513.396 53.5965 517.633 50.8734 522.324 48.9066C526.712 46.9398 531.856 46.0318 536.698 46.0318C548.047 46.0318 557.126 49.3605 563.481 56.4712C569.836 63.582 573.316 73.5673 573.316 87.1837C573.316 88.5453 573.316 90.2094 573.165 91.571C573.014 93.2352 573.014 94.5969 572.863 95.8072H521.416C521.718 100.195 524.291 104.431 528.074 107.003C532.008 109.877 537.152 111.239 543.659 111.239C547.744 111.239 551.83 110.936 555.915 110.029C559.244 109.272 562.573 108.365 565.599 107.154L568.626 125.763C566.961 126.52 565.448 126.973 563.632 127.579C561.514 128.335 559.244 128.637 556.672 129.243C554.251 129.697 551.376 130.15 548.501 130.453C545.626 130.756 542.902 131.058 540.027 131.058C533.672 131.21 527.317 130.151 521.265 127.881C516.271 125.914 511.732 123.04 507.949 119.258C504.469 115.475 501.745 110.936 500.232 106.246C499.173 100.497 498.416 94.7482 498.416 88.9991ZM551.679 80.3755C551.527 78.4087 551.073 76.5929 550.619 74.7774C550.165 72.8106 549.258 71.4492 547.896 69.785C546.685 68.4234 545.172 67.0615 543.508 66.4563C541.541 65.5485 539.119 65.0948 536.85 65.0948C534.58 64.9435 532.462 65.3975 530.192 66.3052C528.376 67.0617 527.014 68.272 525.804 69.6336C524.593 71.2978 523.686 72.8108 522.929 74.6263C522.172 76.5931 521.718 78.4085 521.567 80.5266H551.679V80.3755Z" fill="#495054"/>
<path d="M696.184 88.9991C696.032 82.6448 697.092 76.2905 699.361 70.3901C701.328 65.3974 704.203 60.8586 707.835 57.0762C711.164 53.5965 715.4 50.8734 720.091 48.9066C724.479 46.9398 729.624 46.0318 734.466 46.0318C745.814 46.0318 754.893 49.3605 761.248 56.4712C767.604 63.582 771.084 73.5673 771.084 87.1837C771.084 88.5453 771.084 90.2094 770.932 91.571C770.781 93.2352 770.781 94.5969 770.63 95.8072H719.183C719.486 100.195 722.058 104.431 725.841 107.003C729.775 109.877 734.92 111.239 741.426 111.239C745.512 111.239 749.597 110.936 753.683 110.029C757.012 109.272 760.341 108.365 763.367 107.154L766.393 125.763C764.729 126.52 763.215 126.973 761.4 127.579C759.281 128.335 757.012 128.637 754.439 129.243C752.018 129.697 749.143 130.15 746.268 130.453C743.393 130.756 740.67 131.058 737.795 131.058C731.44 131.21 725.085 130.151 719.032 127.881C714.039 125.914 709.499 123.04 705.716 119.258C702.236 115.475 699.513 110.936 697.999 106.246C696.94 100.497 696.184 94.7482 696.184 88.9991ZM749.295 80.3755C749.143 78.4087 748.841 76.5929 748.235 74.7774C747.782 72.8106 746.874 71.4492 745.512 69.785C744.301 68.4234 742.788 67.0615 741.124 66.4563C739.157 65.5485 736.736 65.0948 734.466 65.0948C732.196 64.9435 730.078 65.3975 727.808 66.3052C725.992 67.0617 724.631 68.272 723.42 69.6336C722.21 71.2978 721.302 72.8108 720.545 74.6263C719.789 76.5931 719.335 78.4085 719.183 80.5266H749.295V80.3755Z" fill="#495054"/>
<path d="M434.411 88.8475C434.411 95.2017 433.503 101.102 431.687 106.095C429.871 111.239 427.148 115.778 423.667 119.56C420.187 123.342 416.102 126.065 411.108 128.184C406.115 130.15 400.819 131.209 394.615 131.209C388.714 131.209 383.266 130.15 378.424 128.184C373.431 126.217 369.346 123.191 365.865 119.56C362.385 115.778 359.662 111.239 357.694 106.095C355.727 100.8 354.819 94.8992 354.819 88.8475C354.819 82.4932 355.879 76.5929 357.846 71.6002C359.813 66.305 362.688 62.0686 366.168 58.135C369.648 54.504 373.885 51.6295 378.727 49.5114C383.72 47.5446 388.865 46.4855 394.615 46.4855C400.365 46.4855 405.812 47.5446 410.654 49.5114C415.648 51.4782 419.733 54.504 423.213 58.135C426.693 61.9173 429.417 66.305 431.384 71.6002C433.351 76.7442 434.411 82.4932 434.411 88.8475ZM411.108 88.8475C411.108 81.7367 409.746 76.1391 406.871 72.0542C403.996 67.9693 400.214 66.0025 394.918 66.0025C389.622 66.0025 385.536 67.9693 382.661 72.0542C379.786 76.1391 378.424 81.5854 378.424 88.8475C378.424 95.9582 379.786 101.556 382.661 105.641C385.536 109.877 389.622 111.844 394.918 111.844C400.214 111.844 404.299 109.877 406.871 105.641C409.595 101.405 411.108 95.8069 411.108 88.8475Z" fill="#495054"/>
<path d="M803.011 98.9841V129.848H780.163V79.7699C780.163 74.7772 780.617 70.5409 781.827 66.456C783.038 62.371 784.551 59.0429 786.972 56.1683C789.393 53.1424 792.571 51.0242 796.656 49.6626C800.742 47.9983 805.886 47.2417 812.241 47.2417C817.235 47.2417 821.321 47.5442 824.649 48.3007C827.978 49.2085 831.005 49.965 833.728 51.0241L830.551 67.6664C828.432 66.7586 826.011 66.3047 823.439 65.6995C821.018 65.0943 818.294 64.943 815.873 64.943C810.728 64.943 807.4 66.305 805.735 69.0282C804.071 71.7515 803.314 77.6518 803.314 82.0393V81.4342L803.011 98.9841Z" fill="#495054"/>
<path d="M240.577 130.453C233.465 118.047 226.051 105.641 217.729 93.538C209.406 81.2833 200.782 69.9364 191.551 59.1945V130.605H167.341V21.6738H187.466C190.946 25.1535 194.729 29.3896 198.814 34.3822C202.9 39.5262 207.288 44.8214 211.525 50.5705C215.913 56.3197 220.15 62.2204 224.538 68.2721C228.926 74.3239 232.86 80.2242 236.794 85.9734V21.6738H261.156V130.605L240.577 130.453Z" fill="#495054"/>
<path d="M93.5005 56.3197L106.211 69.1796C111.507 74.6261 111.204 83.401 105.606 89.1501L92.1387 102.766L75.7968 86.2757C72.4679 82.9473 67.1719 82.9473 63.9943 86.2757L28.7382 121.678L52.3432 145.582C59.7576 153.147 72.1652 152.693 79.8823 144.826L123.763 100.497C135.566 88.3937 136.02 69.6337 124.823 58.438L108.027 41.493L93.5005 56.3197Z" fill="#495054"/>
<path d="M54.3098 6.99858L9.97483 52.0836C-1.52503 63.7331 -2.13034 82.3421 9.06689 93.6891L25.7114 110.483L39.3297 96.715L26.7706 84.0065C21.4747 78.56 21.4747 70.2387 26.7706 64.9435L41.902 49.5117L57.9413 65.8514C61.2702 69.1798 66.5662 69.1798 69.5925 65.8514L104.849 30.449L81.6976 6.69569C74.2832 -1.17154 62.0268 -0.717363 54.3098 6.99858Z" fill="#E3C20D"/>
<path d="M467.245 95.3533V94.8994C467.245 99.7408 468.153 105.792 469.969 108.818C471.785 111.693 475.265 113.055 480.41 113.055C482.831 113.055 485.706 112.903 488.429 112.298C491.304 111.693 491.758 111.239 494.179 110.331L497.508 128.033C494.482 129.243 493.271 129.999 489.791 130.907C486.311 131.815 482.074 132.118 476.929 132.118C470.423 132.118 465.127 131.21 460.739 129.697C456.502 128.033 453.022 125.763 450.45 122.586C448.029 119.56 446.061 116.081 445.154 111.693C444.094 107.457 443.489 102.615 443.489 97.4713V34.9875H467.094V77.5007L467.245 95.3533Z" fill="#495054"/>
<path d="M640.046 34.9875H663.803V46.0316H685.289V64.1868H663.803V93.3865C663.803 98.2279 664.71 104.28 666.526 107.305C668.342 110.18 671.822 111.542 676.967 111.542C679.388 111.542 682.112 111.39 684.987 110.785C687.71 110.18 690.131 109.726 692.401 108.818L695.73 126.52C692.855 127.579 689.677 128.638 686.348 129.394C683.02 130.302 678.631 130.605 673.487 130.605C666.98 130.605 661.684 129.697 657.296 128.184C653.059 126.52 649.579 124.25 647.007 121.073C644.586 118.047 642.618 114.568 641.711 110.18C640.651 105.944 640.046 101.102 640.046 95.9584V34.9875Z" fill="#495054"/>
<path d="M584.06 34.9875H607.816V46.0316H629.303V64.1868H607.816V93.3865C607.816 98.2279 608.724 104.28 610.54 107.305C612.356 110.18 615.836 111.542 620.98 111.542C623.401 111.542 626.125 111.39 629 110.785C631.724 110.18 634.145 109.726 636.414 108.818L639.743 126.52C636.868 127.579 633.691 128.638 630.362 129.394C627.033 130.302 622.645 130.605 617.5 130.605C610.994 130.605 605.698 129.697 601.31 128.184C597.073 126.52 593.593 124.25 591.02 121.073C588.599 118.047 586.632 114.568 585.724 110.18C584.665 105.944 584.06 101.102 584.06 95.9584V34.9875Z" fill="#495054"/>
</svg>
