<svg width="222" height="252" viewBox="0 0 222 252" fill="none" xmlns="http://www.w3.org/2000/svg">
<path d="M155.167 93.1995L176.351 114.633C185.178 123.71 184.674 138.335 175.343 147.917L152.898 170.611L125.661 143.126C120.113 137.579 111.286 137.579 105.99 143.126L47.2302 202.13L86.5719 241.971C98.9292 254.578 119.609 253.822 132.47 240.71L205.605 166.828C225.276 146.656 226.033 115.389 207.371 96.73L179.378 68.4882L155.167 93.1995Z" fill="#495054"/>
<path d="M89.8496 10.9976L15.9581 86.1393C-3.20838 105.555 -4.21723 136.57 14.4448 155.482L42.1857 183.471L64.8828 160.525L43.9511 139.344C35.1244 130.267 35.1244 116.398 43.9511 107.572L69.17 81.8528L95.9021 109.086C101.45 114.633 110.277 114.633 115.321 109.086L174.081 50.0816L135.496 10.4928C123.139 -2.61923 102.711 -1.86227 89.8496 10.9976Z" fill="#E3C20D"/>
</svg>
