<?xml version="1.0" encoding="utf-8"?>
<!-- Generator: Adobe Illustrator 25.4.2, SVG Export Plug-In . SVG Version: 6.00 Build 0)  -->
<svg version="1.1" id="Ebene_1" xmlns="http://www.w3.org/2000/svg" xmlns:xlink="http://www.w3.org/1999/xlink" x="0px" y="0px"
	 viewBox="0 0 749 169" style="enable-background:new 0 0 749 169;" xml:space="preserve">
<style type="text/css">
	.st0{fill:#495054;}
	.st1{fill:#B5B5B5;}
</style>
<path class="st0" d="M93.7,64.3l12.7,12.9c5.3,5.4,5,14.2-0.6,20l-13.5,13.6L76,94.3c-3.3-3.3-8.6-3.3-11.8,0l-35.3,35.4l23.6,23.9
	c7.4,7.6,19.8,7.1,27.5-0.8l43.9-44.3c11.8-12.1,12.3-30.9,1.1-42.1l-16.8-16.9L93.7,64.3z"/>
<path class="st1" d="M54.3,15.1L10,60.2C-1.5,71.9-2.1,90.5,9.1,101.8l16.6,16.8l13.6-13.8L26.8,92.1c-5.3-5.4-5.3-13.8,0-19.1
	l15.1-15.4L58,74c3.3,3.3,8.6,3.3,11.7,0l35.3-35.4L81.7,14.8C74.3,6.8,62,7.2,54.3,15.1z"/>
<g>
	<path class="st0" d="M202.6,117.7c3.4,0,6.2-0.3,8.4-0.8c2.2-0.6,4-1.3,5.3-2.3c1.3-1,2.3-2.1,2.8-3.4c0.5-1.3,0.8-2.8,0.8-4.4
		c0-3.4-1.6-6.3-4.9-8.6c-3.3-2.3-8.9-4.7-16.9-7.4c-3.5-1.2-7-2.6-10.4-4.2c-3.5-1.6-6.6-3.5-9.4-5.9c-2.8-2.4-5-5.3-6.8-8.7
		c-1.7-3.4-2.6-7.5-2.6-12.4c0-4.9,0.9-9.2,2.8-13.1c1.8-3.9,4.5-7.2,7.8-10c3.4-2.7,7.5-4.8,12.3-6.3c4.8-1.5,10.2-2.2,16.3-2.2
		c7.2,0,13.4,0.8,18.6,2.3c5.2,1.5,9.5,3.2,12.9,5L232.6,54c-3-1.5-6.3-2.9-9.9-4c-3.6-1.2-8-1.7-13.1-1.7c-5.7,0-9.9,0.8-12.4,2.4
		c-2.5,1.6-3.8,4-3.8,7.2c0,1.9,0.5,3.5,1.4,4.9c0.9,1.3,2.2,2.5,3.9,3.6s3.6,2,5.8,2.9c2.2,0.9,4.6,1.7,7.3,2.7
		c5.5,2,10.3,4,14.4,6c4.1,2,7.5,4.3,10.2,6.9c2.7,2.6,4.7,5.7,6.1,9.3c1.3,3.5,2,7.9,2,12.9c0,9.8-3.5,17.5-10.4,22.9
		c-7,5.4-17.5,8.1-31.5,8.1c-4.7,0-9-0.3-12.8-0.8c-3.8-0.6-7.1-1.2-10.1-2.1c-2.9-0.8-5.4-1.7-7.5-2.6c-2.1-0.9-3.9-1.8-5.3-2.6
		l6.8-18.8c3.2,1.7,7.1,3.3,11.8,4.6C190.1,117,195.8,117.7,202.6,117.7z"/>
	<path class="st0" d="M251.9,96.4c0-7.1,1.1-13.3,3.3-18.6c2.2-5.3,5.1-9.8,8.7-13.3c3.6-3.5,7.7-6.2,12.4-8.1
		c4.7-1.8,9.4-2.7,14.4-2.7c11.5,0,20.5,3.5,27.2,10.4c6.7,6.9,10,17.2,10,30.6c0,1.3-0.1,2.8-0.2,4.3c-0.1,1.6-0.2,3-0.3,4.2h-51.9
		c0.5,4.7,2.7,8.4,6.6,11.1c3.9,2.7,9.1,4.1,15.7,4.1c4.2,0,8.3-0.4,12.4-1.1c4-0.8,7.3-1.7,9.9-2.8l3.1,18.4
		c-1.2,0.6-2.9,1.2-4.9,1.8c-2,0.6-4.3,1.1-6.8,1.6c-2.5,0.5-5.2,0.8-8.1,1.1c-2.9,0.3-5.7,0.5-8.6,0.5c-7.3,0-13.6-1.1-19-3.2
		c-5.4-2.1-9.8-5-13.4-8.7c-3.5-3.7-6.1-8.1-7.8-13.1C252.8,107.8,251.9,102.3,251.9,96.4z M305.7,87.8c-0.1-1.9-0.4-3.8-1-5.6
		c-0.6-1.8-1.4-3.4-2.6-4.9c-1.2-1.4-2.7-2.6-4.5-3.5c-1.8-0.9-4-1.4-6.7-1.4c-2.6,0-4.8,0.4-6.6,1.3c-1.8,0.9-3.4,2-4.6,3.4
		c-1.2,1.4-2.2,3.1-2.8,4.9c-0.7,1.9-1.2,3.8-1.5,5.7H305.7z"/>
	<path class="st0" d="M339,35.9l22.9-3.6v23.6h27.5v18.8h-27.5v28.1c0,4.8,0.8,8.6,2.5,11.4c1.7,2.8,5.1,4.3,10.2,4.3
		c2.5,0,5-0.2,7.6-0.7c2.6-0.5,5-1.1,7.1-1.9l3.2,17.6c-2.8,1.1-5.8,2.1-9.2,2.9c-3.4,0.8-7.5,1.2-12.4,1.2
		c-6.2,0-11.4-0.8-15.5-2.5c-4.1-1.7-7.4-4-9.8-7c-2.5-3-4.2-6.6-5.1-10.9c-1-4.3-1.5-9-1.5-14.1V35.9z"/>
	<path class="st0" d="M401.5,35.9l22.9-3.6v23.6h27.5v18.8h-27.5v28.1c0,4.8,0.8,8.6,2.5,11.4c1.7,2.8,5.1,4.3,10.2,4.3
		c2.5,0,5-0.2,7.6-0.7s5-1.1,7.1-1.9l3.2,17.6c-2.8,1.1-5.8,2.1-9.2,2.9c-3.4,0.8-7.5,1.2-12.4,1.2c-6.2,0-11.4-0.8-15.5-2.5
		c-4.1-1.7-7.4-4-9.8-7c-2.5-3-4.2-6.6-5.1-10.9c-1-4.3-1.5-9-1.5-14.1V35.9z"/>
	<path class="st0" d="M489.9,32.8c0,4.2-1.4,7.4-4.1,9.8c-2.7,2.4-5.9,3.6-9.6,3.6c-3.7,0-6.9-1.2-9.6-3.6c-2.7-2.4-4.1-5.6-4.1-9.8
		c0-4.2,1.4-7.4,4.1-9.8c2.7-2.4,5.9-3.6,9.6-3.6c3.7,0,6.9,1.2,9.6,3.6C488.5,25.3,489.9,28.6,489.9,32.8z M487.7,135.8h-22.9v-80
		h22.9V135.8z"/>
	<path class="st0" d="M503.6,58.6c3.9-1.1,8.9-2.2,15.1-3.1c6.1-1,12.6-1.4,19.4-1.4c6.9,0,12.6,0.9,17.1,2.7
		c4.6,1.8,8.2,4.3,10.8,7.5c2.7,3.2,4.6,7.1,5.7,11.6c1.1,4.5,1.7,9.4,1.7,14.9v45.1h-22.9V93.4c0-7.3-1-12.5-2.9-15.5
		c-1.9-3-5.6-4.6-10.9-4.6c-1.6,0-3.4,0.1-5.2,0.2c-1.8,0.2-3.5,0.3-4.9,0.5v61.7h-22.9V58.6z"/>
	<path class="st0" d="M658.1,125.8c0,13.1-3.4,22.8-10.1,29.1c-6.7,6.3-17.1,9.5-31.1,9.5c-4.9,0-9.8-0.4-14.7-1.3
		c-4.9-0.9-9.5-2-13.7-3.4l4-19c3.6,1.4,7.3,2.5,11.3,3.3c3.9,0.8,8.4,1.2,13.4,1.2c6.6,0,11.2-1.4,13.9-4.3
		c2.7-2.8,4.1-6.5,4.1-10.9v-2.9c-2.5,1.1-5,2-7.6,2.5c-2.6,0.6-5.5,0.8-8.5,0.8c-11.2,0-19.7-3.3-25.7-9.8
		c-5.9-6.5-8.9-15.7-8.9-27.4c0-5.9,0.9-11.2,2.8-16c1.8-4.8,4.5-8.9,8.1-12.4c3.5-3.4,7.9-6.1,13-8c5.1-1.9,10.9-2.8,17.4-2.8
		c2.8,0,5.6,0.1,8.5,0.4c2.9,0.3,5.8,0.6,8.7,1c2.9,0.4,5.6,0.9,8.2,1.4c2.6,0.6,4.9,1.1,7,1.7V125.8z M607.9,93.2
		c0,12.7,5.2,19,15.5,19c2.4,0,4.6-0.3,6.6-0.9c2-0.6,3.8-1.3,5.2-2.1V73c-1.1-0.2-2.5-0.4-4-0.5c-1.5-0.2-3.3-0.2-5.4-0.2
		c-6,0-10.5,2-13.5,5.9C609.3,82.2,607.9,87.2,607.9,93.2z"/>
	<path class="st0" d="M697.1,119.5c4.2,0,7.2-0.4,8.9-1.2c1.7-0.8,2.6-2.4,2.6-4.7c0-1.8-1.1-3.4-3.4-4.8c-2.3-1.4-5.7-2.9-10.3-4.6
		c-3.6-1.3-6.8-2.7-9.8-4.1c-2.9-1.4-5.4-3.1-7.5-5.1c-2-2-3.6-4.3-4.8-7.1c-1.1-2.7-1.7-6-1.7-9.9c0-7.5,2.8-13.4,8.4-17.8
		c5.6-4.4,13.4-6.5,23.2-6.5c4.9,0,9.6,0.4,14.1,1.3c4.5,0.9,8.1,1.8,10.8,2.8l-4,17.6c-2.7-0.9-5.6-1.7-8.7-2.4
		c-3.1-0.7-6.6-1.1-10.5-1.1c-7.2,0-10.8,2-10.8,5.9c0,0.9,0.2,1.7,0.5,2.4c0.3,0.7,0.9,1.4,1.8,2.1c0.9,0.7,2.2,1.4,3.8,2.1
		c1.6,0.8,3.6,1.6,6.1,2.5c5,1.8,9.2,3.7,12.4,5.4c3.3,1.8,5.9,3.7,7.8,5.8c1.9,2.1,3.2,4.4,4,6.9c0.8,2.5,1.2,5.5,1.2,8.8
		c0,7.9-3,13.9-9,17.9c-6,4-14.5,6.1-25.4,6.1c-7.2,0-13.1-0.6-17.9-1.8c-4.8-1.2-8.1-2.2-9.9-3l3.8-18.4c3.9,1.5,7.9,2.7,12,3.6
		C689.1,119.1,693.1,119.5,697.1,119.5z"/>
</g>
</svg>
