<?xml version="1.0" encoding="utf-8"?>
<!-- Generator: Adobe Illustrator 24.2.1, SVG Export Plug-In . SVG Version: 6.00 Build 0)  -->
<svg version="1.1" id="Ebene_1" xmlns="http://www.w3.org/2000/svg" xmlns:xlink="http://www.w3.org/1999/xlink" x="0px" y="0px"
	 viewBox="0 0 222 252" style="enable-background:new 0 0 222 252;" xml:space="preserve">
<style type="text/css">
	.st0{fill:#FFFFFF;stroke:#FFFFFF;stroke-miterlimit:10;}
	.st1{fill:#FFFFFF;}
</style>
<path class="st0" d="M155.2,93.2l21.2,21.4c8.8,9.1,8.3,23.7-1,33.3l-22.4,22.7l-27.2-27.5c-5.5-5.5-14.4-5.5-19.7,0l-58.8,59
	L86.6,242c12.4,12.6,33,11.9,45.9-1.3l73.1-73.9c19.7-20.2,20.4-51.4,1.8-70.1l-28-28.2L155.2,93.2z"/>
<path class="st1" d="M89.8,11L16,86.1c-19.2,19.4-20.2,50.4-1.5,69.3l27.7,28l22.7-22.9L44,139.3c-8.8-9.1-8.8-22.9,0-31.8
	l25.2-25.7l26.7,27.2c5.5,5.5,14.4,5.5,19.4,0l58.8-59l-38.6-39.6C123.1-2.6,102.7-1.9,89.8,11z"/>
</svg>
