<svg width="835" height="152" viewBox="0 0 835 152" fill="none" xmlns="http://www.w3.org/2000/svg">
<path d="M94.7103 55.2607L107.421 68.1206C112.717 73.5671 112.414 82.342 106.815 88.0912L91.23 103.826L74.8883 87.3347C71.5594 84.0063 66.2633 84.0063 63.0858 87.3347L28.889 121.678L52.4938 145.582C59.9082 153.147 72.3158 152.693 80.0328 144.826L123.914 100.497C135.716 88.3937 136.17 69.6337 124.973 58.438L108.177 41.4929L94.7103 55.2607Z" fill="white"/>
<path d="M54.3095 6.99858L9.97475 52.0836C-1.52507 63.7331 -2.13028 82.3421 9.06691 93.6891L25.7114 110.483L38.2703 97.7743L25.7114 85.0655C20.4154 79.6189 20.4154 71.2981 25.7114 66.0028L42.9609 48.4527L59.0003 64.7924C62.3292 68.1208 67.6251 68.1208 70.6514 64.7924L104.848 30.449L81.6973 6.69569C74.4343 -1.17154 62.1777 -0.717363 54.3095 6.99858Z" fill="white"/>
<path d="M271.899 88.9991C271.747 82.6448 272.807 76.2905 275.076 70.3901C277.044 65.3974 279.918 60.8586 283.55 57.0762C286.879 53.5965 291.116 50.8734 295.806 48.9066C300.194 46.9398 305.339 46.0318 310.181 46.0318C321.53 46.0318 330.609 49.3605 336.964 56.4712C343.319 63.582 346.799 73.5673 346.799 87.1837C346.799 88.5453 346.799 90.2094 346.648 91.571C346.496 93.2352 346.496 94.5969 346.345 95.8072H294.898C295.201 100.195 297.774 104.431 301.556 107.003C305.491 109.877 310.635 111.239 317.141 111.239C321.227 111.239 325.313 110.936 329.398 110.029C332.727 109.272 336.056 108.365 339.082 107.154L342.108 125.763C340.444 126.52 338.931 126.973 337.115 127.579C334.997 128.335 332.727 128.637 330.155 129.243C327.734 129.697 324.859 130.15 321.984 130.453C319.109 130.756 316.385 131.058 313.51 131.058C307.155 131.21 300.8 130.151 294.747 127.881C289.754 125.914 285.214 123.04 281.432 119.258C277.951 115.475 275.228 110.936 273.714 106.246C272.655 100.497 271.899 94.7482 271.899 88.9991ZM325.01 80.3755C324.859 78.4087 324.556 76.5929 323.951 74.7774C323.345 72.8106 322.589 71.4492 321.227 69.785C320.017 68.4234 318.503 67.0615 316.839 66.4563C314.872 65.5485 312.451 65.0948 310.181 65.0948C307.911 64.9435 305.793 65.3975 303.523 66.3052C301.707 67.0617 300.346 68.272 299.135 69.6336C297.925 71.2978 297.017 72.8108 296.26 74.6263C295.504 76.5931 295.05 78.4085 294.898 80.5266H325.01V80.3755Z" fill="white"/>
<path d="M498.568 88.9991C498.416 82.6448 499.475 76.2905 501.745 70.3901C503.712 65.3974 506.587 60.8586 510.219 57.0762C513.548 53.5965 517.784 50.8734 522.475 48.9066C526.863 46.9398 532.008 46.0318 536.85 46.0318C548.198 46.0318 557.277 49.3605 563.632 56.4712C569.987 63.582 573.468 73.5673 573.468 87.1837C573.468 88.5453 573.467 90.2094 573.316 91.571C573.165 93.2352 573.165 94.5969 573.014 95.8072H521.567C521.87 100.195 524.442 104.431 528.225 107.003C532.159 109.877 537.304 111.239 543.81 111.239C547.896 111.239 551.981 110.936 556.067 110.029C559.396 109.272 562.724 108.365 565.751 107.154L568.777 125.763C567.112 126.52 565.599 126.973 563.783 127.579C561.665 128.335 559.396 128.637 556.823 129.243C554.402 129.697 551.527 130.15 548.652 130.453C545.777 130.756 543.054 131.058 540.179 131.058C533.824 131.21 527.468 130.151 521.416 127.881C516.422 125.914 511.883 123.04 508.1 119.258C504.62 115.475 501.896 110.936 500.383 106.246C499.324 100.497 498.568 94.7482 498.568 88.9991ZM551.83 80.3755C551.678 78.4087 551.225 76.5929 550.771 74.7774C550.317 72.8106 549.409 71.4492 548.047 69.785C546.836 68.4234 545.323 67.0615 543.659 66.4563C541.692 65.5485 539.271 65.0948 537.001 65.0948C534.731 64.9435 532.613 65.3975 530.343 66.3052C528.528 67.0617 527.166 68.272 525.955 69.6336C524.745 71.2978 523.837 72.8108 523.08 74.6263C522.324 76.5931 521.87 78.4085 521.719 80.5266H551.83V80.3755Z" fill="white"/>
<path d="M696.334 88.9991C696.183 82.6448 697.242 76.2905 699.512 70.3901C701.479 65.3974 704.354 60.8586 707.985 57.0762C711.314 53.5965 715.551 50.8734 720.242 48.9066C724.63 46.9398 729.775 46.0318 734.617 46.0318C745.965 46.0318 755.044 49.3605 761.399 56.4712C767.754 63.582 771.235 73.5673 771.235 87.1837C771.235 88.5453 771.234 90.2094 771.083 91.571C770.932 93.2352 770.932 94.5969 770.781 95.8072H719.334C719.636 100.195 722.209 104.431 725.992 107.003C729.926 109.877 735.07 111.239 741.577 111.239C745.662 111.239 749.748 110.936 753.833 110.029C757.162 109.272 760.491 108.365 763.517 107.154L766.544 125.763C764.879 126.52 763.366 126.973 761.551 127.579C759.432 128.335 757.162 128.637 754.59 129.243C752.169 129.697 749.294 130.15 746.419 130.453C743.544 130.756 740.82 131.058 737.945 131.058C731.59 131.21 725.235 130.151 719.183 127.881C714.189 125.914 709.65 123.04 705.867 119.258C702.387 115.475 699.663 110.936 698.15 106.246C697.091 100.497 696.334 94.7482 696.334 88.9991ZM749.445 80.3755C749.294 78.4087 748.991 76.5929 748.386 74.7774C747.932 72.8106 747.024 71.4492 745.663 69.785C744.452 68.4234 742.939 67.0615 741.274 66.4563C739.307 65.5485 736.886 65.0948 734.617 65.0948C732.347 64.9435 730.228 65.3975 727.959 66.3052C726.143 67.0617 724.781 68.272 723.571 69.6336C722.36 71.2978 721.452 72.8108 720.696 74.6263C719.939 76.5931 719.485 78.4085 719.334 80.5266H749.445V80.3755Z" fill="white"/>
<path d="M434.561 88.8475C434.561 95.2018 433.653 101.102 431.837 106.095C430.021 111.239 427.298 115.778 423.817 119.56C420.337 123.342 416.252 126.065 411.259 128.184C406.265 130.15 400.969 131.209 394.765 131.209C388.864 131.209 383.417 130.15 378.575 128.184C373.581 126.217 369.496 123.191 366.015 119.56C362.535 115.778 359.812 111.239 357.845 106.095C355.878 100.8 354.969 94.8992 354.969 88.8475C354.969 82.4932 356.029 76.5929 357.996 71.6003C359.963 66.305 362.838 62.0686 366.318 58.135C369.798 54.504 374.035 51.6295 378.877 49.5114C383.871 47.5446 389.015 46.4855 394.765 46.4855C400.515 46.4855 405.963 47.5446 410.805 49.5114C415.798 51.4782 419.884 54.504 423.364 58.135C426.844 61.9173 429.568 66.305 431.535 71.6003C433.502 76.7442 434.561 82.4932 434.561 88.8475ZM411.259 88.8475C411.259 81.7367 409.897 76.1391 407.022 72.0542C404.147 67.9693 400.364 66.0025 395.068 66.0025C389.772 66.0025 385.686 67.9693 382.811 72.0542C379.937 76.1391 378.575 81.5854 378.575 88.8475C378.575 95.9582 379.937 101.556 382.811 105.641C385.686 109.877 389.772 111.844 395.068 111.844C400.364 111.844 404.449 109.877 407.022 105.641C409.745 101.405 411.259 95.8069 411.259 88.8475Z" fill="white"/>
<path d="M803.163 98.9841V129.848H780.314V79.7699C780.314 74.7772 780.768 70.5409 781.979 66.456C783.189 62.371 784.702 59.0429 787.123 56.1683C789.544 53.1424 792.722 51.0242 796.807 49.6626C800.893 47.9984 806.037 47.2417 812.393 47.2417C817.386 47.2417 821.471 47.5443 824.8 48.3007C828.129 49.2085 831.155 49.965 833.879 51.0241L830.702 67.6664C828.583 66.7586 826.162 66.3047 823.59 65.6995C821.169 65.0943 818.445 64.943 816.024 64.943C810.88 64.943 807.55 66.305 805.886 69.0282C804.222 71.7515 803.465 77.6518 803.465 82.0393V81.4343L803.163 98.9841Z" fill="white"/>
<path d="M240.728 130.453C233.616 118.047 226.202 105.641 217.88 93.538C209.558 81.2833 200.933 69.9364 191.703 59.1945V130.605H167.492V21.6738H187.617C191.097 25.1535 194.88 29.3896 198.966 34.3823C203.051 39.5262 207.439 44.8214 211.676 50.5705C216.064 56.3197 220.301 62.2204 224.689 68.2721C229.077 74.3239 233.011 80.2242 236.945 85.9734V21.6738H261.307V130.605L240.728 130.453Z" fill="white"/>
<path d="M467.397 95.3533V94.8994C467.397 99.7408 468.305 105.792 470.121 108.818C471.936 111.693 475.417 113.055 480.561 113.055C482.982 113.055 485.857 112.903 488.581 112.298C491.456 111.693 491.91 111.239 494.331 110.331L497.66 128.033C494.634 129.243 493.423 129.999 489.943 130.907C486.463 131.815 482.226 132.118 477.081 132.118C470.575 132.118 465.278 131.21 460.89 129.697C456.653 128.033 453.173 125.763 450.601 122.586C448.18 119.56 446.213 116.081 445.305 111.693C444.246 107.457 443.64 102.615 443.64 97.4713V34.9875H467.246V77.5007L467.397 95.3533Z" fill="white"/>
<path d="M640.197 34.9875H663.953V46.0316H685.439V64.1868H663.953V93.3865C663.953 98.2279 664.86 104.28 666.676 107.305C668.492 110.18 671.972 111.542 677.117 111.542C679.538 111.542 682.262 111.39 685.137 110.785C687.86 110.18 690.281 109.726 692.551 108.818L695.879 126.52C693.005 127.579 689.827 128.638 686.498 129.394C683.169 130.302 678.781 130.605 673.637 130.605C667.13 130.605 661.834 129.697 657.446 128.184C653.21 126.52 649.729 124.25 647.157 121.073C644.736 118.047 642.769 114.568 641.861 110.18C640.802 105.944 640.197 101.102 640.197 95.9584V34.9875Z" fill="white"/>
<path d="M580.125 34.9875H603.881V46.0316H625.368V64.1868H603.881V93.3865C603.881 98.2279 604.789 104.28 606.605 107.305C608.421 110.18 611.901 111.542 617.046 111.542C619.467 111.542 622.19 111.39 625.065 110.785C627.789 110.18 630.21 109.726 632.48 108.818L635.809 126.52C632.934 127.579 629.756 128.638 626.427 129.394C623.099 130.302 618.71 130.605 613.566 130.605C607.059 130.605 601.763 129.697 597.375 128.184C593.138 126.52 589.658 124.25 587.086 121.073C584.665 118.047 582.698 114.568 581.79 110.18C580.731 105.944 580.125 101.102 580.125 95.9584V34.9875Z" fill="white"/>
</svg>
