<svg width="817" height="152" viewBox="0 0 817 152" fill="none" xmlns="http://www.w3.org/2000/svg">
<path d="M283.771 26.1809C283.771 30.4181 282.409 33.5962 279.684 36.1688C276.96 38.5901 273.63 39.6495 270.149 39.6495C266.365 39.6495 263.187 38.5901 260.614 36.1688C257.89 33.7476 256.528 30.5695 256.528 26.1809C256.528 21.9436 257.89 18.7659 260.614 16.1933C263.338 13.772 266.668 12.7126 270.149 12.7126C273.933 12.7126 277.111 13.772 279.684 16.1933C282.409 18.6146 283.771 21.7923 283.771 26.1809ZM281.652 130.296H258.798V49.3345H281.652V130.296Z" fill="#495054"/>
<path d="M200.528 21.6411C216.419 21.6411 228.83 24.6677 237.306 30.2669C245.782 35.8661 250.171 45.0974 250.171 57.9604C250.171 70.9749 245.933 80.0549 237.155 85.8055C228.376 91.556 215.966 94.4312 199.922 94.4312H192.203V130.448H168.139V24.6678C173.436 23.6084 179.036 22.8518 184.787 22.3978C191.144 21.6411 196.139 21.6411 200.528 21.6411ZM202.193 41.9196C200.376 41.9196 198.863 41.9194 197.047 42.0707C195.23 42.2221 193.868 42.222 192.658 42.3733V73.3961H200.376C208.852 73.3961 215.057 72.1855 219.295 70.0669C223.533 67.7969 225.652 63.5596 225.652 57.5064C225.652 54.3284 225.198 52.0585 223.836 49.9399C222.625 47.8212 221.263 46.4595 219.295 45.2488C217.176 44.0382 214.906 43.1303 211.879 42.6763C208.852 42.3736 205.674 41.9196 202.193 41.9196Z" fill="#495054"/>
<path d="M321.306 113.65C325.695 113.65 328.722 113.347 330.539 112.439C332.355 111.531 333.112 110.018 333.112 107.748C333.112 105.781 331.901 104.267 329.63 102.905C327.36 101.543 323.728 99.879 318.884 98.2144C315.252 96.8524 311.922 95.6417 308.744 93.9771C305.717 92.6151 303.144 90.7993 301.025 88.832C298.906 86.8647 297.241 84.4434 296.182 81.5681C294.971 78.6928 294.365 75.3634 294.365 71.5802C294.365 64.0136 297.392 58.1119 303.144 53.572C308.895 49.1834 317.068 46.9133 327.209 46.9133C332.355 46.9133 337.198 47.216 341.89 48.124C346.582 49.032 350.366 49.9402 353.09 50.9995L348.852 68.8561C345.976 67.9482 343.101 67.0404 339.922 66.4351C336.744 65.6784 333.112 65.3758 329.025 65.3758C321.609 65.3758 317.825 67.343 317.825 71.2776C317.825 72.1855 317.976 73.0937 318.279 73.699C318.582 74.4556 319.187 75.0608 320.247 75.8175C321.155 76.5741 322.517 77.1793 324.03 77.9359C325.544 78.6926 327.663 79.4495 330.387 80.5089C335.685 82.4761 339.922 84.1406 343.403 85.9565C346.733 87.7725 349.609 89.5885 351.425 91.7071C353.393 93.8258 354.755 96.0959 355.663 98.6685C356.571 101.241 356.874 104.116 356.874 107.597C356.874 115.466 353.695 121.67 347.641 125.605C341.436 129.691 332.506 131.81 321.306 131.81C313.89 131.81 307.684 131.053 302.69 129.842C297.695 128.632 294.214 127.573 292.398 126.665L296.484 108.051C300.571 109.564 304.657 110.926 308.895 111.683C312.982 113.347 317.22 113.65 321.306 113.65Z" fill="#495054"/>
<path d="M779.446 113.65C783.835 113.65 786.862 113.347 788.678 112.439C790.494 111.531 791.251 110.018 791.251 107.748C791.251 105.781 790.04 104.267 787.77 102.905C785.5 101.543 781.867 99.879 777.024 98.2144C773.392 96.8524 770.062 95.6417 766.883 93.9771C763.856 92.6151 761.283 90.7993 759.164 88.832C757.045 86.8647 755.381 84.4434 754.321 81.5681C753.11 78.6928 752.505 75.3634 752.505 71.5802C752.505 64.0136 755.532 58.1119 761.283 53.572C767.035 49.1834 775.208 46.9133 785.348 46.9133C790.494 46.9133 795.337 47.216 800.029 48.124C804.721 49.032 808.505 49.9402 811.229 50.9995L806.992 68.8561C804.116 67.9482 801.24 67.0404 798.062 66.4351C794.883 65.6784 791.251 65.3758 787.164 65.3758C779.748 65.3758 775.965 67.343 775.965 71.2776C775.965 72.1855 776.116 73.0937 776.419 73.699C776.721 74.4556 777.327 75.0608 778.386 75.8175C779.294 76.5741 780.656 77.1793 782.17 77.9359C783.683 78.6926 785.802 79.4495 788.527 80.5089C793.824 82.4761 798.062 84.1406 801.543 85.9565C804.873 87.7725 807.748 89.5885 809.565 91.7071C811.532 93.8258 812.894 96.0959 813.802 98.6685C814.711 101.241 815.013 104.116 815.013 107.597C815.013 115.466 811.835 121.67 805.781 125.605C799.575 129.691 790.646 131.81 779.446 131.81C772.029 131.81 765.824 131.053 760.829 129.842C755.986 128.632 752.354 127.573 750.537 126.665L754.624 108.051C758.71 109.564 762.797 110.926 767.035 111.683C770.97 113.347 775.208 113.65 779.446 113.65Z" fill="#495054"/>
<path d="M401.219 47.216C408.181 47.216 414.084 47.9727 418.776 49.486C423.468 50.9993 427.251 53.1176 429.976 55.9929C432.7 58.8682 434.668 62.1977 435.878 66.1323C437.089 70.2182 437.695 76.1198 437.695 80.9624V127.27C434.365 128.026 429.673 128.783 423.468 129.691C417.565 130.599 410.149 131.053 401.522 131.053C396.073 131.053 391.23 130.599 386.841 129.691C382.452 128.783 378.668 127.421 375.49 125.302C372.311 123.184 369.89 120.611 368.073 117.282C366.257 113.952 365.5 109.866 365.5 105.175C365.5 100.635 366.56 93.3717 368.527 90.3451C370.495 87.3185 373.068 84.5946 376.398 82.7786C379.727 80.8113 383.36 79.4491 387.598 78.6924C391.835 77.7844 396.225 77.4821 400.765 77.4821C403.944 77.4821 406.517 77.6333 408.938 77.7847C411.36 77.936 413.327 78.2386 414.689 78.8439C414.689 78.8439 414.235 75.0607 413.781 74.0014C413.63 72.9421 413.479 71.7315 410.906 69.4615C408.484 67.1915 404.246 65.9808 398.344 65.9808C394.257 65.9808 390.322 66.2836 386.387 66.889C382.452 67.4943 375.49 69.9155 372.765 70.9748L369.89 52.8152C373.976 50.9992 376.549 50.3939 378.517 49.7886C380.636 49.3346 382.906 48.8805 385.327 48.5779C387.749 48.2752 390.473 47.8211 393.046 47.6697C395.771 47.3671 398.495 47.216 401.219 47.216ZM403.035 113.801C405.306 113.801 407.576 113.801 409.695 113.65C411.814 113.499 413.478 113.498 414.841 113.196V94.7336C413.933 94.5822 412.419 94.4308 410.603 94.2795C408.635 94.1282 406.971 93.9769 405.306 93.9769C403.035 93.9769 400.916 94.1282 398.949 94.2795C396.981 94.4308 395.317 95.0364 393.803 95.6417C392.441 96.3983 391.23 97.1549 390.322 98.5168C389.414 99.7275 389.111 102.906 389.111 104.722C389.111 108.202 390.322 110.623 392.744 111.985C395.316 113.196 398.646 113.801 403.035 113.801Z" fill="#495054"/>
<path d="M566.646 47.216C573.608 47.216 579.511 47.9727 584.202 49.486C588.894 50.9993 592.678 53.1176 595.402 55.9929C598.278 58.8682 600.094 62.1977 601.305 66.1323C602.516 70.0669 603.121 76.1198 603.121 80.9624V127.27C599.792 128.026 595.1 128.783 588.894 129.691C582.992 130.599 575.575 131.053 566.948 131.053C561.5 131.053 556.657 130.599 552.267 129.691C547.878 128.783 544.094 127.421 540.916 125.302C537.738 123.184 535.316 120.611 533.5 117.282C531.684 113.952 530.927 109.866 530.927 105.175C530.927 100.635 531.986 93.3717 533.954 90.3451C535.922 87.3185 538.494 84.5946 541.824 82.7786C545.154 80.8113 548.786 79.4491 553.024 78.6924C557.262 77.7844 561.651 77.4821 566.192 77.4821C569.37 77.4821 571.943 77.6333 574.365 77.7847C576.786 77.936 578.754 78.2386 580.116 78.8439C580.116 78.8439 579.662 75.0607 579.208 74.0014C579.057 72.9421 578.905 71.7315 576.332 69.4615C573.911 67.1915 569.673 65.9808 563.77 65.9808C559.684 65.9808 555.748 66.2836 551.813 66.889C548.03 67.343 540.916 69.9155 538.192 70.9748L535.316 52.8152C539.403 50.9992 541.976 50.3939 543.943 49.7886C546.062 49.3346 548.332 48.8805 550.754 48.5779C553.176 48.2752 555.9 47.8211 558.473 47.6697C561.197 47.3671 564.073 47.216 566.646 47.216ZM568.613 113.801C570.884 113.801 573.154 113.801 575.273 113.65C577.392 113.499 579.056 113.498 580.419 113.196V94.7336C579.511 94.5822 577.997 94.4308 576.181 94.2795C574.213 94.1282 572.549 93.9769 570.884 93.9769C568.613 93.9769 566.494 94.1282 564.527 94.2795C562.559 94.4308 560.894 95.0364 559.381 95.6417C558.019 96.3983 556.808 97.1549 555.9 98.5168C554.992 99.7275 554.689 102.906 554.689 104.722C554.689 108.202 555.9 110.623 558.321 111.985C560.894 113.196 564.224 113.801 568.613 113.801Z" fill="#495054"/>
<path d="M639.295 95.3387V94.885C639.295 99.5763 640.203 105.629 641.867 108.353C643.684 111.229 647.165 112.591 652.462 112.591C654.884 112.591 657.759 112.439 660.332 111.834C663.208 111.38 663.662 110.775 665.932 109.867L669.262 127.27C666.235 128.48 665.024 129.237 661.543 130.145C658.062 131.053 653.824 131.355 648.678 131.355C642.17 131.355 636.873 130.448 632.484 128.934C628.246 127.421 624.765 125.151 622.344 122.124C619.922 119.098 617.954 115.617 617.046 111.38C615.987 107.143 615.533 102.603 615.533 97.4576V32.5367H639.143V77.6332V95.3387H639.295Z" fill="#495054"/>
<path d="M671.078 89.7396C671.078 82.4757 672.137 76.4226 674.408 70.9747C676.527 65.5268 679.554 61.1381 683.035 57.6575C686.516 54.1769 690.754 51.3016 695.294 49.6369C699.835 47.8209 704.829 46.7618 709.672 46.7618C721.024 46.7618 730.256 50.2424 736.613 57.3549C743.272 64.3162 746.602 74.6065 746.602 88.2263C746.602 89.5883 746.602 91.1018 746.451 92.6151C746.299 94.1284 746.299 95.6414 746.148 96.8521H694.386C694.84 101.543 696.959 105.327 701.046 108.051C704.829 110.926 710.127 112.288 716.635 112.288C720.872 112.288 724.807 111.985 728.894 111.077C732.98 110.321 736.31 109.261 738.732 108.202L741.759 126.816C740.548 127.27 738.883 128.026 736.916 128.632C734.797 129.086 732.526 129.842 730.105 130.145C727.683 130.599 724.807 131.053 722.083 131.356C719.359 131.658 716.332 131.81 713.456 131.81C706.191 131.81 699.986 130.75 694.537 128.632C689.089 126.513 684.7 123.487 681.218 119.855C677.737 116.223 675.013 111.834 673.5 106.689C671.986 101.089 671.078 95.6415 671.078 89.7396ZM724.505 80.9623C724.354 78.995 724.202 77.1791 723.445 75.3632C722.991 73.5472 722.083 71.8826 720.872 70.5206C719.662 69.1587 718.299 67.9479 716.483 67.04C714.667 66.132 712.397 65.6781 709.824 65.6781C707.251 65.6781 705.132 65.9809 703.164 66.8889C701.348 67.7968 699.835 68.8559 698.624 70.3692C697.413 71.8825 696.505 73.5474 695.748 75.212C694.992 77.1793 694.537 78.995 694.386 80.9623H724.505Z" fill="#495054"/>
<path d="M482.041 111.531C485.371 111.531 487.944 111.229 490.517 110.623C492.635 110.169 494.3 109.261 495.662 108.202C497.025 107.142 497.781 106.083 498.236 104.873C498.69 103.511 499.144 101.846 499.144 100.484C499.144 97.0036 497.63 94.1284 494.3 91.8585C491.122 89.4372 485.371 87.167 477.5 84.4431C474.019 83.3838 470.69 81.8704 467.209 80.2058C463.728 78.6925 460.701 76.7253 458.128 74.304C455.555 71.8828 452.982 69.1587 451.468 65.5268C449.955 62.1976 449.047 57.9604 449.047 53.1178C449.047 48.2753 449.955 44.0381 451.619 39.9522C453.587 36.169 456.009 32.6884 459.338 30.1158C462.668 27.5432 466.754 25.2733 471.598 23.76C476.29 22.2467 481.738 21.6411 487.49 21.6411C494.452 21.6411 500.657 22.5493 505.954 24.0626C511.1 25.5759 515.489 27.2404 518.819 29.2076L512.008 47.9728C508.981 46.4595 505.803 44.9459 502.171 43.8866C498.538 42.8273 494.3 42.3733 489.155 42.3733C483.555 42.3733 479.468 43.2814 476.895 44.7947C474.473 46.308 473.263 48.8807 473.263 52.0586C473.263 54.0259 473.717 55.5391 474.625 56.9011C475.533 58.2631 476.744 59.3224 478.408 60.3818C479.922 61.4411 481.89 62.349 484.311 63.4084C486.43 64.3163 488.852 64.9216 491.576 65.9809C497.025 67.9482 501.717 70.0666 505.803 71.8826C509.89 73.8499 513.219 76.2712 515.792 78.6925C518.365 81.2651 520.484 84.2917 521.695 87.7723C523.057 91.2528 523.662 95.6416 523.662 100.787C523.662 110.623 520.181 118.19 513.371 123.789C506.56 129.237 496.116 131.961 482.192 131.961C477.5 131.961 473.263 131.658 469.782 131.053C466.149 130.599 462.819 129.993 459.944 129.085C456.917 128.177 454.495 127.572 452.376 126.664C450.409 125.756 448.592 124.697 447.23 124.243L453.89 105.327C457.068 106.84 460.852 108.656 465.392 110.018C469.479 111.077 475.381 111.531 482.041 111.531Z" fill="#495054"/>
<path d="M93.6739 56.2959L106.388 69.159C111.685 74.6069 111.382 83.384 105.782 89.1346L92.3117 102.754L75.9657 86.2591C72.636 82.9298 67.3387 82.9298 64.1603 86.2591L28.8954 121.671L52.5062 145.581C59.9225 153.148 72.3333 152.694 80.0523 144.824L123.944 100.484C135.75 88.3779 136.204 69.6128 125.004 58.4144L108.204 41.4654L93.6739 56.2959Z" fill="#495054"/>
<path d="M54.3228 7.11348L9.97703 52.2095C-1.52564 63.8619 -2.1311 82.4755 9.06887 93.8253L25.7175 110.623L39.3391 96.8519L26.7769 84.1403C21.4797 78.6924 21.4797 70.3691 26.7769 65.0726L41.912 49.637L57.9553 65.9807C61.285 69.3099 66.5822 69.3099 69.6093 65.9807L104.874 30.5696L81.7173 6.81052C74.3011 -1.20997 62.0417 -0.755681 54.3228 7.11348Z" fill="#2B8C42"/>
</svg>
