<svg width="673" height="152" viewBox="0 0 673 152" fill="none" xmlns="http://www.w3.org/2000/svg">
<path d="M202.899 111.844C206.228 111.844 208.951 111.541 211.372 110.936C213.491 110.331 215.307 109.575 216.517 108.515C217.879 107.456 218.636 106.397 219.241 105.187C219.846 103.825 220.149 102.161 220.149 100.8C220.149 97.3199 218.484 94.4454 215.155 92.176C211.978 89.7553 206.077 87.3346 198.208 84.7626C194.728 83.7036 191.248 82.0393 187.768 80.5264C184.288 78.8621 181.261 77.0466 178.538 74.4747C175.814 71.9027 173.393 69.3309 171.88 65.5486C170.216 62.2201 169.459 57.9839 169.459 52.9912C169.459 47.9986 170.367 43.7623 172.183 39.6774C174.15 35.7438 176.571 32.4154 179.9 29.6921C183.229 26.9689 187.314 24.6996 192.307 23.3379C197.149 21.6737 202.596 21.2198 208.346 21.2198C215.458 21.2198 221.662 22.1275 226.958 23.6404C232.102 25.3046 236.49 26.8176 239.819 28.7844L232.859 47.696C229.833 46.0318 226.655 44.6702 222.872 43.6111C219.089 42.5521 214.853 41.9468 209.708 41.9468C204.11 41.9468 200.024 42.8547 197.301 44.3676C194.88 46.0318 193.518 48.4524 193.518 51.6295C193.518 53.5963 194.123 55.1093 194.88 56.6223C195.787 57.9839 196.998 59.0428 198.814 60.1019C200.478 61.1609 202.294 62.0687 204.866 63.1277C206.985 64.0355 209.405 64.792 212.129 65.8511C217.576 67.8179 222.418 69.936 226.504 71.9028C230.589 73.8696 233.918 76.2902 236.642 78.8622C239.366 81.5854 241.484 84.46 242.694 88.091C244.056 91.5707 244.661 96.1096 244.661 101.254C244.661 111.239 241.181 118.803 234.221 124.401C227.26 129.848 216.82 132.722 202.748 132.722C197.906 132.722 193.669 132.42 190.189 131.815C186.406 131.209 183.077 130.756 180.202 129.848C177.176 128.94 174.755 128.183 172.637 127.427C170.67 126.519 168.702 125.46 167.492 125.006L174.15 105.944C177.327 107.608 181.261 109.272 185.801 110.785C190.189 111.239 196.09 111.844 202.899 111.844Z" fill="white"/>
<path d="M249.2 89.6041C249.2 83.5523 250.26 78.2571 252.227 72.9618C254.194 67.8179 256.766 63.4305 260.549 59.4969C264.029 55.5633 268.569 52.5374 273.713 50.4193C278.858 48.3012 284.759 47.0908 291.266 47.0908C295.502 47.0908 299.588 47.3935 303.068 48.15C306.548 49.0577 310.18 50.1167 313.509 51.4783L308.667 69.7847C306.548 68.877 304.127 68.1205 301.555 67.6666C299.134 66.9101 296.108 66.7589 292.93 66.7589C286.272 66.7589 281.128 68.7256 277.95 72.9618C274.621 77.198 272.805 82.6446 272.805 89.6041C272.805 96.8661 274.47 102.464 277.647 106.549C280.674 110.634 286.272 112.601 294.141 112.601C296.864 112.601 299.739 112.298 303.22 111.693C306.397 111.088 309.272 110.331 312.147 109.272L315.325 128.032C312.601 129.092 309.272 129.999 305.338 131.058C301.252 131.966 296.864 132.118 292.174 132.118C284.759 132.118 278.555 131.058 273.108 128.789C267.963 126.671 263.575 123.645 259.944 119.711C256.615 115.929 253.891 111.39 252.378 106.398C250.108 101.405 249.2 95.8071 249.2 89.6041Z" fill="white"/>
<path d="M407.476 26.0611C407.476 30.2973 406.114 33.4746 403.39 36.0466C400.666 38.4672 397.337 39.5262 393.857 39.5262C390.074 39.5262 386.896 38.4672 384.324 36.0466C381.752 33.6259 380.239 30.4486 380.239 26.0611C380.239 21.8249 381.6 18.6478 384.324 16.0758C387.048 13.6551 390.377 12.5962 393.857 12.5962C397.64 12.5962 400.818 13.6551 403.39 16.0758C406.265 18.6478 407.476 21.8249 407.476 26.0611ZM405.508 130.151H382.66V49.2089H405.508V130.151Z" fill="white"/>
<path d="M444.547 130.151C439.402 119.863 434.106 108.062 428.659 94.1427C423.212 80.5263 418.219 65.3971 413.225 49.36H437.435C438.494 53.4449 439.554 57.6812 440.915 62.5226C442.277 67.364 443.942 71.7514 445.303 76.744C446.968 81.5854 448.329 86.2756 449.691 90.5118C451.356 95.0506 452.718 99.1355 454.08 102.918C455.441 99.1355 456.803 95.2019 458.467 90.5118C460.132 85.973 461.494 81.4341 463.007 76.744C464.671 71.9026 466.033 67.2127 467.395 62.5226C468.757 57.6812 469.816 53.4449 470.875 49.36H494.631C489.638 65.3971 484.644 80.5263 479.197 94.1427C473.75 107.759 468.605 119.863 463.309 130.151H444.547Z" fill="white"/>
<path d="M527.315 26.0611C527.315 30.2973 525.953 33.4746 523.23 36.0466C520.506 38.6185 517.177 39.5262 513.697 39.5262C509.914 39.5262 506.736 38.4672 504.164 36.0466C501.592 33.6259 500.079 30.4486 500.079 26.0611C500.079 21.8249 501.44 18.6478 504.164 16.0758C506.888 13.6551 510.217 12.5962 513.697 12.5962C517.48 12.5962 520.657 13.6551 523.23 16.0758C526.105 18.6478 527.315 21.8249 527.315 26.0611ZM525.197 130.151H502.348V49.2089H525.197V130.151Z" fill="white"/>
<path d="M671.365 89.6041C671.365 95.9584 670.458 101.859 668.642 107.003C666.675 112.147 664.102 116.686 660.622 120.468C657.142 124.25 653.057 126.974 648.063 129.092C643.07 131.21 637.774 132.118 631.57 132.118C625.518 132.118 620.222 131.058 615.531 129.092C610.538 127.125 606.452 124.099 602.972 120.468C599.492 116.686 596.768 112.147 594.801 107.003C592.834 101.859 591.775 95.8071 591.775 89.6041C591.775 83.2498 592.834 77.3493 594.801 72.2054C596.768 67.0614 599.643 62.674 603.123 58.8917C606.604 55.1094 610.84 52.386 615.682 50.2679C620.676 48.3011 625.82 47.242 631.57 47.242C637.623 47.242 642.767 48.3011 647.609 50.2679C652.451 52.2347 656.688 55.2607 660.168 58.8917C663.648 62.674 666.372 67.0614 668.339 72.2054C670.306 77.3493 671.365 83.0985 671.365 89.6041ZM647.912 89.6041C647.912 82.4933 646.55 77.0467 643.675 72.9618C640.649 68.8769 637.018 66.9101 631.57 66.9101C626.426 66.9101 622.34 68.8769 619.314 72.9618C616.287 77.0467 615.077 82.4933 615.077 89.6041C615.077 96.7148 616.439 102.161 619.314 106.246C622.34 110.482 626.274 112.449 631.57 112.449C636.866 112.449 640.8 110.482 643.675 106.246C646.702 102.313 647.912 96.7148 647.912 89.6041Z" fill="white"/>
<path d="M539.421 40.2825H562.269L562.42 49.814H582.999V66.7587H562.42L562.269 97.0173C562.269 101.556 563.177 107.305 564.69 110.18C566.354 113.054 569.835 114.265 574.828 114.265C577.249 114.265 579.821 114.113 582.394 113.508C584.815 112.903 587.387 112.449 589.505 111.541L592.683 128.184C589.959 129.243 587.084 130.15 583.604 130.907C580.275 131.815 576.19 131.966 571.196 131.966C564.993 131.966 559.848 131.058 555.611 129.545C551.526 127.881 548.197 125.763 545.927 123.04C543.506 120.014 541.691 116.837 540.783 112.752C539.724 108.667 539.118 104.279 539.118 99.4379L539.421 40.2825Z" fill="white"/>
<path d="M345.739 99.1355V130.151H322.891V79.9214C322.891 74.9288 323.496 70.6925 324.555 66.6076C325.614 62.5227 327.279 59.1942 329.7 56.3196C332.121 53.2938 335.298 51.1758 339.384 49.8141C343.469 48.1499 348.614 47.3935 354.969 47.3935C359.962 47.3935 364.048 47.696 367.377 48.4525C370.706 49.3602 373.732 50.1168 376.455 51.1758L373.278 67.818C371.159 66.9103 368.738 66.4563 366.166 65.8511C363.745 65.246 361.021 65.0947 358.6 65.0947C353.456 65.0947 350.127 66.4562 348.463 69.1795C346.798 71.9028 346.041 77.8033 346.041 82.3421V81.7369V99.2868L345.739 99.1355Z" fill="white"/>
<path d="M94.7101 55.2606L107.42 68.1205C112.716 73.5671 112.414 82.342 106.815 88.0911L91.2298 103.826L74.8878 87.3346C71.5589 84.0062 66.263 84.0062 63.0854 87.3346L28.8884 121.678L52.4934 145.582C59.9078 153.147 72.3155 152.693 80.0325 144.826L123.914 100.497C135.716 88.3938 136.17 69.6334 124.973 58.4378L108.177 41.493L94.7101 55.2606Z" fill="white"/>
<path d="M54.3096 6.99836L9.97485 52.0835C-1.52497 63.733 -2.13037 82.3419 9.06682 93.6889L25.7113 110.482L38.2704 97.7737L25.7113 85.0651C20.4153 79.6186 20.4153 71.2975 25.7113 66.0023L42.9611 48.4525L59.0002 64.7921C62.3291 68.1205 67.6252 68.1205 70.6515 64.7921L104.848 30.4486L81.6973 6.69584C74.4342 -1.17135 62.1779 -0.717546 54.3096 6.99836Z" fill="white"/>
</svg>
