<?xml version="1.0" encoding="utf-8"?>
<svg version="1.1" class="path" id="Ebene_1" xmlns="http://www.w3.org/2000/svg" xmlns:xlink="http://www.w3.org/1999/xlink" x="0px" y="0px"
	 viewBox="0 0 190 160" style="enable-background:new 0 0 190 160;" xml:space="preserve">
<style type="text/css">
	.path {
		stroke-dasharray: 500;
		animation: dash 6s 1 linear;
		animation-fill-mode: forwards;
		animation-iteration-count: 3;
	}
	@keyframes dash {
		from{
		stroke-dashoffset: 500;
		fill: transparent;
		opacity: 0.5;
		}
		to {
		stroke-dashoffset: 0;
		fill: #f7931e;
		opacity: 1;
		}
	}
	.st0{fill:#FFFFFF;stroke:#CCCCCC;stroke-width:2;stroke-miterlimit:10;}
	.st1{fill:none;stroke:#E3C20D;stroke-width:2;stroke-miterlimit:10;}
	.st2{fill:#EEEEEE;}
	.st3{fill:#CCCCCC;}
	.st4{fill:none;stroke:#CCCCCC;stroke-linecap:round;stroke-miterlimit:10;}
	.st5{fill:#FFFFFF;stroke:#CCCCCC;stroke-miterlimit:10;}
	.st6{fill:none;stroke:#CCCCCC;stroke-width:2;stroke-linecap:round;stroke-miterlimit:10;}
	.st7{fill:#FFFFFF;stroke:#CCCCCC;stroke-width:2;stroke-linecap:round;stroke-miterlimit:10;}
	.st8{fill:#EEEEEE;stroke:#EEEEEE;stroke-width:1.5;stroke-linecap:round;stroke-linejoin:round;}
	.st9{fill:none;stroke:#EEEEEE;stroke-width:1.5;stroke-linecap:round;stroke-linejoin:round;}
	.st10{fill:none;stroke:#FFFFFF;stroke-width:1.5;stroke-linecap:round;stroke-linejoin:round;}
</style>
<g>
	<path class="st0" d="M70.5,96.2c0,0-7.2,6.3-9.7,9c-2.5,2.7-4.7,5.4-3.5,8.2c1.2,2.7-1.5-5.4-9-5.4s-5,8.1-4,10.9
		c1.5,4,7.2,12.2,12.2,12.2s3-2.7,4.2-4.1c1.2-1.4,1.2-4.1,5-6.8c3.7-2.7,3.7-2.7,6.2-2.7s22.5,0,22.5,0h0.8c0,0,20,0,22.5,0
		s2.5,0,6.2,2.7c3.7,2.7,3.7,5.4,5,6.8c1.2,1.4,1.2,4.1,6.2,4.1s9.8-8.2,11.2-12.2c1-2.8,2.5-10.9-5-10.9c-7.5,0-10.2,8.2-9,5.4
		c1.2-2.7-1-5.4-3.5-8.2c-2.5-2.7-9.7-9-9.7-9"/>
	<path class="st1" d="M119.4,70.2c0,0,2-12-0.3-14.6c-2.3-2.6-10.3-3.5-10.3-3.5H96.3H95H82.4c0,0-8,0.9-10.3,3.5
		c-2.3,2.6-1.1,13.6-1.1,13.6"/>
	<path class="st0" d="M111.8,85.4L108,95.6l-0.6,3.5l-0.6,3.7l6.3,1.5l4.1-5.5c0,0,3.2-4.8,4.3-8.7c1.3-4.4,2-12.5,0.7-19.8
		c-1.2-7.1-8.9-10.8-8.9-10.8l-1.5-0.3l-8.9,5.8l-7.6,1.5l-8.9-1.5l-6.3-4.4h-2.5c0,0-7.6,2.5-8.9,9.6c-1.3,7.3,0.5,16.6,1.7,20.9
		c1.1,3.9,3.3,8.7,3.3,8.7l6.3,4.4h5.1l-0.9-4.9L84,97.1l-5.1-11.6l6.9,17l21.3-1.2l3-11.6L111.8,85.4z"/>
	<ellipse class="st0" cx="96" cy="45.6" rx="21.9" ry="21.6"/>
	<path class="st2" d="M113.7,49c0,9.2-7.2,14.6-17.3,14.6S79,58.2,79,49s7.2-15.6,17.3-15.6S113.7,39.8,113.7,49z"/>
	<path class="st3" d="M98.8,57.9c0.3,0.1,1.2-0.1,1.3-0.4c0.3-1-0.6-2.2-2.1-2.6c-1.5-0.4-3.2,0.2-4.1,0.7c-1.2,0.6-1.5,2-0.8,2.6
		C93.1,58.2,96.1,56.7,98.8,57.9z"/>
	<ellipse class="st3" cx="88.8" cy="49" rx="1.8" ry="1.7"/>
	<ellipse class="st3" cx="104.3" cy="49.3" rx="1.8" ry="1.7"/>
	<path class="st0" d="M114.4,127.1H75.7c-1.4,0-2.5-1.1-2.5-2.5l-2.5-21.2c0-1.4,1.1-2.5,2.5-2.5h43.7c1.4,0,2.5,1.1,2.5,2.5
		l-2.5,21.2C116.9,126,115.8,127.1,114.4,127.1z"/>
	<path class="st0" d="M115.9,130.5H74.2c-0.6,0-1-0.4-1-1v-1.7c0-0.6,0.4-1,1-1h41.7c0.6,0,1,0.4,1,1v1.7
		C116.9,130.1,116.5,130.5,115.9,130.5z"/>
	<path class="st4" d="M66.5,108.5c0,0-0.2-2.6-2.7-3.5c-2.5-0.9-3.6-0.1-3.6-0.1"/>
	<path class="st4" d="M123.6,108.5c0,0,0.1-2.4,2.4-3.4c2.3-1,3.3-0.3,3.3-0.3"/>
	<circle class="st5" cx="135.5" cy="39.5" r="2"/>
	<circle class="st5" cx="148.5" cy="47.5" r="2"/>
	<circle class="st5" cx="38.5" cy="53.5" r="2"/>
	<circle class="st0" cx="50.5" cy="58.5" r="5.5"/>
	<circle class="st5" cx="57.5" cy="46.5" r="2"/>
	<path class="st6" d="M121.6,96.3c0,0,12.2,3.1,16.1-1.4c4-4.5-6.4-8.1-3.8-14.9c2.6-6.8,9.9-5.9,14.8-5.3"/>
	<path class="st7" d="M151.7,77.9c-1.6-0.2-3.4-1.6-3.2-3c0.2-1.4,2.3-2.2,3.9-2L151.7,77.9z"/>
	<line class="st6" x1="152.9" y1="74" x2="155.4" y2="74.3"/>
	<line class="st6" x1="152.5" y1="76.7" x2="155.1" y2="77.1"/>
	<path class="st2" d="M105.1,91.5c-0.2,0.8-0.8,2.6-1.9,3.1c-1.1,0.5-14.3-0.1-14.3-0.1S87.1,94,86.4,93c-0.7-1-2.4-8-2.4-8
		s-1-4,0.3-5.7c0.5-0.6,8-2.3,10.7-2.3c2.8,0,10.1,1.7,11,2c0.9,0.3,1.1,1.7,1.1,3C107,84,105.3,90.8,105.1,91.5z"/>
	<path class="st0" d="M41,111.5c0.4,2.3,1.7,6.5,3,9c1.9,3.6,7.2,9.4,11,11c1.9,0.8,6.5-0.6,8-2c1.9-1.7,3-5,2-7
		c-1.1-2.2-4.9-5.4-6-7c-2-3-2.8-6.7-4-9c-1-1.9-3-4-6-5c-1.4-0.5-5,0-7,2C40.5,104.9,40.6,109.5,41,111.5z"/>
	<path class="st0" d="M39,113.8c0.4,2.3,1.7,6.5,3,9c1.9,3.6,7.2,9.4,11,11c1.9,0.8,6.5-0.6,8-2c1.9-1.7,3-5,2-7
		c-1.1-2.2-4.9-5.4-6-7c-2-3-2.8-6.7-4-9c-1-1.9-3-4-6-5c-1.4-0.5-5,0-7,2C38.5,107.2,38.6,111.8,39,113.8z"/>
	<path class="st0" d="M149.4,111.5c-0.4,2.3-1.7,6.5-3,9c-1.9,3.6-7.2,9.4-11,11c-1.9,0.8-6.5-0.6-8-2c-1.9-1.7-3-5-2-7
		c1.1-2.2,4.9-5.4,6-7c2-3,2.8-6.7,4-9c1-1.9,3-4,6-5c1.4-0.5,5,0,7,2C149.8,104.9,149.7,109.5,149.4,111.5z"/>
	<path class="st0" d="M151.4,113.8c-0.4,2.3-1.7,6.5-3,9c-1.9,3.6-7.2,9.4-11,11c-1.9,0.8-6.5-0.6-8-2c-1.9-1.7-3-5-2-7
		c1.1-2.2,4.9-5.4,6-7c2-3,2.8-6.7,4-9c1-1.9,3-4,6-5c1.4-0.5,5,0,7,2C151.8,107.2,151.7,111.8,151.4,113.8z"/>
	<g>
		<path class="st8" d="M90.3,113.1h9.1c0.3,0,0.5,0.2,0.5,0.5v6.6c0,0.3-0.2,0.5-0.5,0.5h-9.1c-0.3,0-0.5-0.2-0.5-0.5v-6.6
			C89.8,113.3,90,113.1,90.3,113.1z"/>
		<path class="st9" d="M91.8,112.6V111c0-1.7,1.4-3,3-3s3,1.4,3,3v1.6"/>
	</g>
	<g>
		<circle class="st10" cx="94.8" cy="116.2" r="0.9"/>
		<line class="st10" x1="94.8" y1="117.8" x2="94.8" y2="118.8"/>
	</g>
</g>
</svg>
